# https://github.com/mikedh/trimesh
mtllib material.mtl
usemtl material_0
v 0.00000000 0.00899994 0.01629924
v 0.00175577 0.00882703 -0.00870035
v 0.00000000 0.00899994 -0.00870035
v 0.00175577 0.00882703 0.01629924
v 0.00344402 0.00831485 -0.00870035
v 0.00175577 0.00882703 -0.00870035
v 0.00344402 0.00831485 0.01629924
v 0.00500011 0.00748318 -0.00870035
v 0.00344402 0.00831485 -0.00870035
v 0.00500011 0.00748318 0.01629924
v 0.00636381 0.00636381 -0.00870035
v 0.00500011 0.00748318 -0.00870035
v 0.00636381 0.00636381 0.01629924
v 0.00748318 0.00500011 -0.00870035
v 0.00636381 0.00636381 -0.00870035
v 0.00748318 0.00500011 0.01629924
v 0.00831485 0.00344402 -0.00870035
v 0.00748318 0.00500011 -0.00870035
v 0.00831485 0.00344402 0.01629924
v 0.00882703 0.00175577 -0.00870035
v 0.00831485 0.00344402 -0.00870035
v 0.00882703 0.00175577 0.01629924
v 0.00899994 0.00000000 -0.00870035
v 0.00882703 0.00175577 -0.00870035
v 0.00899994 0.00000000 0.01629924
v 0.00882703 -0.00175577 -0.00870035
v 0.00899994 0.00000000 -0.00870035
v 0.00882703 -0.00175577 0.01629924
v 0.00831485 -0.00344402 -0.00870035
v 0.00882703 -0.00175577 -0.00870035
v 0.00831485 -0.00344402 0.01629924
v 0.00748318 -0.00500011 -0.00870035
v 0.00831485 -0.00344402 -0.00870035
v 0.00748318 -0.00500011 0.01629924
v 0.00636381 -0.00636381 -0.00870035
v 0.00748318 -0.00500011 -0.00870035
v 0.00636381 -0.00636381 0.01629924
v 0.00500011 -0.00748318 -0.00870035
v 0.00636381 -0.00636381 -0.00870035
v 0.00500011 -0.00748318 0.01629924
v 0.00344402 -0.00831485 -0.00870035
v 0.00500011 -0.00748318 -0.00870035
v 0.00344402 -0.00831485 0.01629924
v 0.00175577 -0.00882703 -0.00870035
v 0.00344402 -0.00831485 -0.00870035
v 0.00175577 -0.00882703 0.01629924
v 0.00000000 -0.00899994 -0.00870035
v 0.00175577 -0.00882703 -0.00870035
v 0.00000000 -0.00899994 0.01629924
v -0.00175577 -0.00882703 -0.00870035
v 0.00000000 -0.00899994 -0.00870035
v -0.00175577 -0.00882703 0.01629924
v -0.00344402 -0.00831485 -0.00870035
v -0.00175577 -0.00882703 -0.00870035
v -0.00344402 -0.00831485 0.01629924
v -0.00500011 -0.00748318 -0.00870035
v -0.00344402 -0.00831485 -0.00870035
v -0.00500011 -0.00748318 0.01629924
v -0.00636381 -0.00636381 -0.00870035
v -0.00500011 -0.00748318 -0.00870035
v -0.00636381 -0.00636381 0.01629924
v -0.00748318 -0.00500011 -0.00870035
v -0.00636381 -0.00636381 -0.00870035
v -0.00748318 -0.00500011 0.01629924
v -0.00831485 -0.00344402 -0.00870035
v -0.00748318 -0.00500011 -0.00870035
v -0.00831485 -0.00344402 0.01629924
v -0.00882703 -0.00175577 -0.00870035
v -0.00831485 -0.00344402 -0.00870035
v -0.00882703 -0.00175577 0.01629924
v -0.00899994 0.00000000 -0.00870035
v -0.00882703 -0.00175577 -0.00870035
v -0.00899994 0.00000000 0.01629924
v -0.00882703 0.00175577 -0.00870035
v -0.00899994 0.00000000 -0.00870035
v -0.00882703 0.00175577 0.01629924
v -0.00831485 0.00344402 -0.00870035
v -0.00882703 0.00175577 -0.00870035
v -0.00831485 0.00344402 0.01629924
v -0.00748318 0.00500011 -0.00870035
v -0.00831485 0.00344402 -0.00870035
v -0.00748318 0.00500011 0.01629924
v -0.00636381 0.00636381 -0.00870035
v -0.00748318 0.00500011 -0.00870035
v -0.00636381 0.00636381 0.01629924
v -0.00500011 0.00748318 -0.00870035
v -0.00636381 0.00636381 -0.00870035
v -0.00500011 0.00748318 0.01629924
v -0.00344402 0.00831485 -0.00870035
v -0.00500011 0.00748318 -0.00870035
v -0.00344402 -0.00831485 0.01629924
v 0.00831485 -0.00344402 0.01629924
v 0.00344402 0.00831485 0.01629924
v -0.00344402 0.00831485 0.01629924
v -0.00175577 0.00882703 -0.00870035
v -0.00344402 0.00831485 -0.00870035
v -0.00175577 0.00882703 0.01629924
v 0.00000000 0.00899994 -0.00870035
v -0.00175577 0.00882703 -0.00870035
v -0.00175577 0.00882703 -0.00870035
v 0.00882703 0.00175577 -0.00870035
v 0.00175577 -0.00882703 -0.00870035
v 0.00175577 0.00882703 0.01629924
v 0.00344402 0.00831485 0.01629924
v 0.00500011 0.00748318 0.01629924
v 0.00636381 0.00636381 0.01629924
v 0.00748318 0.00500011 0.01629924
v 0.00831485 0.00344402 0.01629924
v 0.00882703 0.00175577 0.01629924
v 0.00899994 0.00000000 0.01629924
v 0.00882703 -0.00175577 0.01629924
v 0.00831485 -0.00344402 0.01629924
v 0.00748318 -0.00500011 0.01629924
v 0.00636381 -0.00636381 0.01629924
v 0.00500011 -0.00748318 0.01629924
v 0.00344402 -0.00831485 0.01629924
v 0.00175577 -0.00882703 0.01629924
v 0.00000000 -0.00899994 0.01629924
v -0.00175577 -0.00882703 0.01629924
v -0.00344402 -0.00831485 0.01629924
v -0.00500011 -0.00748318 0.01629924
v -0.00636381 -0.00636381 0.01629924
v -0.00748318 -0.00500011 0.01629924
v -0.00831485 -0.00344402 0.01629924
v -0.00882703 -0.00175577 0.01629924
v -0.00899994 0.00000000 0.01629924
v -0.00882703 0.00175577 0.01629924
v -0.00831485 0.00344402 0.01629924
v -0.00748318 0.00500011 0.01629924
v -0.00636381 0.00636381 0.01629924
v -0.00500011 0.00748318 0.01629924
v -0.00344402 0.00831485 0.01629924
v 0.00175577 0.00882703 0.01629924
v -0.00344402 0.00831485 0.01629924
v 0.00000000 0.00899994 0.01629924
v -0.00175577 0.00882703 0.01629924
v -0.00500011 0.00748318 0.01629924
v -0.00636381 0.00636381 0.01629924
v -0.00748318 0.00500011 0.01629924
v -0.00831485 0.00344402 0.01629924
v -0.00882703 0.00175577 0.01629924
v -0.00899994 0.00000000 0.01629924
v -0.00882703 -0.00175577 0.01629924
v -0.00831485 -0.00344402 0.01629924
v -0.00748318 -0.00500011 0.01629924
v -0.00636381 -0.00636381 0.01629924
v -0.00500011 -0.00748318 0.01629924
v -0.00175577 -0.00882703 0.01629924
v 0.00000000 -0.00899994 0.01629924
v 0.00175577 -0.00882703 0.01629924
v 0.00344402 -0.00831485 0.01629924
v 0.00500011 -0.00748318 0.01629924
v 0.00636381 -0.00636381 0.01629924
v 0.00748318 -0.00500011 0.01629924
v 0.00882703 -0.00175577 0.01629924
v 0.00831485 0.00344402 0.01629924
v 0.00899994 0.00000000 0.01629924
v 0.00882703 0.00175577 0.01629924
v 0.00748318 0.00500011 0.01629924
v 0.00636381 0.00636381 0.01629924
v 0.00500011 0.00748318 0.01629924
v -0.00175577 0.00882703 0.01629924
v 0.00000000 0.00899994 0.01629924
v 0.00000000 0.00899994 -0.00870035
v 0.00175577 0.00882703 -0.00870035
v 0.00344402 0.00831485 -0.00870035
v 0.00500011 0.00748318 -0.00870035
v 0.00636381 0.00636381 -0.00870035
v 0.00748318 0.00500011 -0.00870035
v 0.00831485 0.00344402 -0.00870035
v 0.00899994 0.00000000 -0.00870035
v 0.00882703 -0.00175577 -0.00870035
v 0.00831485 -0.00344402 -0.00870035
v 0.00748318 -0.00500011 -0.00870035
v 0.00636381 -0.00636381 -0.00870035
v 0.00500011 -0.00748318 -0.00870035
v 0.00344402 -0.00831485 -0.00870035
v 0.00000000 -0.00899994 -0.00870035
v -0.00175577 -0.00882703 -0.00870035
v -0.00344402 -0.00831485 -0.00870035
v -0.00500011 -0.00748318 -0.00870035
v -0.00636381 -0.00636381 -0.00870035
v -0.00748318 -0.00500011 -0.00870035
v -0.00831485 -0.00344402 -0.00870035
v -0.00882703 -0.00175577 -0.00870035
v -0.00899994 0.00000000 -0.00870035
v -0.00882703 0.00175577 -0.00870035
v -0.00831485 0.00344402 -0.00870035
v -0.00748318 0.00500011 -0.00870035
v -0.00636381 0.00636381 -0.00870035
v -0.00500011 0.00748318 -0.00870035
v -0.00344402 0.00831485 -0.00870035
vt 0.00000000 0.00000000
vt 0.00000000 0.00000000
vt 0.00000000 0.00000000
vt 0.00000000 0.00000000
vt 0.00000000 0.00000000
vt 0.00000000 0.00000000
vt 0.00000000 0.00000000
vt 0.00000000 0.00000000
vt 0.00000000 0.00000000
vt 0.00000000 0.00000000
vt 0.00000000 0.00000000
vt 0.00000000 0.00000000
vt 0.00000000 0.00000000
vt 0.00000000 0.00000000
vt 0.00000000 0.00000000
vt 0.00000000 0.00000000
vt 0.00000000 0.00000000
vt 0.00000000 0.00000000
vt 0.00000000 0.00000000
vt 0.00000000 0.00000000
vt 0.00000000 0.00000000
vt 0.00000000 0.00000000
vt 0.00000000 0.00000000
vt 0.00000000 0.00000000
vt 0.00000000 0.00000000
vt 0.00000000 0.00000000
vt 0.00000000 0.00000000
vt 0.00000000 0.00000000
vt 0.00000000 0.00000000
vt 0.00000000 0.00000000
vt 0.00000000 0.00000000
vt 0.00000000 0.00000000
vt 0.00000000 0.00000000
vt 0.00000000 0.00000000
vt 0.00000000 0.00000000
vt 0.00000000 0.00000000
vt 0.00000000 0.00000000
vt 0.00000000 0.00000000
vt 0.00000000 0.00000000
vt 0.00000000 0.00000000
vt 0.00000000 0.00000000
vt 0.00000000 0.00000000
vt 0.00000000 0.00000000
vt 0.00000000 0.00000000
vt 0.00000000 0.00000000
vt 0.00000000 0.00000000
vt 0.00000000 0.00000000
vt 0.00000000 0.00000000
vt 0.00000000 0.00000000
vt 0.00000000 0.00000000
vt 0.00000000 0.00000000
vt 0.00000000 0.00000000
vt 0.00000000 0.00000000
vt 0.00000000 0.00000000
vt 0.00000000 0.00000000
vt 0.00000000 0.00000000
vt 0.00000000 0.00000000
vt 0.00000000 0.00000000
vt 0.00000000 0.00000000
vt 0.00000000 0.00000000
vt 0.00000000 0.00000000
vt 0.00000000 0.00000000
vt 0.00000000 0.00000000
vt 0.00000000 0.00000000
vt 0.00000000 0.00000000
vt 0.00000000 0.00000000
vt 0.00000000 0.00000000
vt 0.00000000 0.00000000
vt 0.00000000 0.00000000
vt 0.00000000 0.00000000
vt 0.00000000 0.00000000
vt 0.00000000 0.00000000
vt 0.00000000 0.00000000
vt 0.00000000 0.00000000
vt 0.00000000 0.00000000
vt 0.00000000 0.00000000
vt 0.00000000 0.00000000
vt 0.00000000 0.00000000
vt 0.00000000 0.00000000
vt 0.00000000 0.00000000
vt 0.00000000 0.00000000
vt 0.00000000 0.00000000
vt 0.00000000 0.00000000
vt 0.00000000 0.00000000
vt 0.00000000 0.00000000
vt 0.00000000 0.00000000
vt 0.00000000 0.00000000
vt 0.00000000 0.00000000
vt 0.00000000 0.00000000
vt 0.00000000 0.00000000
vt 0.00000000 0.00000000
vt 0.00000000 0.00000000
vt 0.00000000 0.00000000
vt 0.00000000 0.00000000
vt 0.00000000 0.00000000
vt 0.00000000 0.00000000
vt 0.00000000 0.00000000
vt 0.00000000 0.00000000
vt 0.00000000 0.00000000
vt 0.00000000 0.00000000
vt 0.00000000 0.00000000
vt 0.00000000 0.00000000
vt 0.00000000 0.00000000
vt 0.00000000 0.00000000
vt 0.00000000 0.00000000
vt 0.00000000 0.00000000
vt 0.00000000 0.00000000
vt 0.00000000 0.00000000
vt 0.00000000 0.00000000
vt 0.00000000 0.00000000
vt 0.00000000 0.00000000
vt 0.00000000 0.00000000
vt 0.00000000 0.00000000
vt 0.00000000 0.00000000
vt 0.00000000 0.00000000
vt 0.00000000 0.00000000
vt 0.00000000 0.00000000
vt 0.00000000 0.00000000
vt 0.00000000 0.00000000
vt 0.00000000 0.00000000
vt 0.00000000 0.00000000
vt 0.00000000 0.00000000
vt 0.00000000 0.00000000
vt 0.00000000 0.00000000
vt 0.00000000 0.00000000
vt 0.00000000 0.00000000
vt 0.00000000 0.00000000
vt 0.00000000 0.00000000
vt 0.00000000 0.00000000
vt 0.00000000 0.00000000
vt 0.00000000 0.00000000
vt 0.00000000 0.00000000
vt 0.00000000 0.00000000
vt 0.00000000 0.00000000
vt 0.00000000 0.00000000
vt 0.00000000 0.00000000
vt 0.00000000 0.00000000
vt 0.00000000 0.00000000
vt 0.00000000 0.00000000
vt 0.00000000 0.00000000
vt 0.00000000 0.00000000
vt 0.00000000 0.00000000
vt 0.00000000 0.00000000
vt 0.00000000 0.00000000
vt 0.00000000 0.00000000
vt 0.00000000 0.00000000
vt 0.00000000 0.00000000
vt 0.00000000 0.00000000
vt 0.00000000 0.00000000
vt 0.00000000 0.00000000
vt 0.00000000 0.00000000
vt 0.00000000 0.00000000
vt 0.00000000 0.00000000
vt 0.00000000 0.00000000
vt 0.00000000 0.00000000
vt 0.00000000 0.00000000
vt 0.00000000 0.00000000
vt 0.00000000 0.00000000
vt 0.00000000 0.00000000
vt 0.00000000 0.00000000
vt 0.00000000 0.00000000
vt 0.00000000 0.00000000
vt 0.00000000 0.00000000
vt 0.00000000 0.00000000
vt 0.00000000 0.00000000
vt 0.00000000 0.00000000
vt 0.00000000 0.00000000
vt 0.00000000 0.00000000
vt 0.00000000 0.00000000
vt 0.00000000 0.00000000
vt 0.00000000 0.00000000
vt 0.00000000 0.00000000
vt 0.00000000 0.00000000
vt 0.00000000 0.00000000
vt 0.00000000 0.00000000
vt 0.00000000 0.00000000
vt 0.00000000 0.00000000
vt 0.00000000 0.00000000
vt 0.00000000 0.00000000
vt 0.00000000 0.00000000
vt 0.00000000 0.00000000
vt 0.00000000 0.00000000
vt 0.00000000 0.00000000
vt 0.00000000 0.00000000
vt 0.00000000 0.00000000
vt 0.00000000 0.00000000
vt 0.00000000 0.00000000
vt 0.00000000 0.00000000
vt 0.00000000 0.00000000
vt 0.00000000 0.00000000
vt 0.00000000 0.00000000
vt 0.00000000 0.00000000
f 1/1 2/2 3/3
f 4/4 5/5 6/6
f 7/7 8/8 9/9
f 10/10 11/11 12/12
f 13/13 14/14 15/15
f 16/16 17/17 18/18
f 19/19 20/20 21/21
f 22/22 23/23 24/24
f 25/25 26/26 27/27
f 28/28 29/29 30/30
f 31/31 32/32 33/33
f 34/34 35/35 36/36
f 37/37 38/38 39/39
f 40/40 41/41 42/42
f 43/43 44/44 45/45
f 46/46 47/47 48/48
f 49/49 50/50 51/51
f 52/52 53/53 54/54
f 55/55 56/56 57/57
f 58/58 59/59 60/60
f 61/61 62/62 63/63
f 64/64 65/65 66/66
f 67/67 68/68 69/69
f 70/70 71/71 72/72
f 73/73 74/74 75/75
f 76/76 77/77 78/78
f 79/79 80/80 81/81
f 82/82 83/83 84/84
f 85/85 86/86 87/87
f 88/88 89/89 90/90
f 91/91 92/92 93/93
f 94/94 95/95 96/96
f 97/97 98/98 99/99
f 100/100 101/101 102/102
f 1/1 103/103 2/2
f 4/4 104/104 5/5
f 7/7 105/105 8/8
f 10/10 106/106 11/11
f 13/13 107/107 14/14
f 16/16 108/108 17/17
f 19/19 109/109 20/20
f 22/22 110/110 23/23
f 25/25 111/111 26/26
f 28/28 112/112 29/29
f 31/31 113/113 32/32
f 34/34 114/114 35/35
f 37/37 115/115 38/38
f 40/40 116/116 41/41
f 43/43 117/117 44/44
f 46/46 118/118 47/47
f 49/49 119/119 50/50
f 52/52 120/120 53/53
f 55/55 121/121 56/56
f 58/58 122/122 59/59
f 61/61 123/123 62/62
f 64/64 124/124 65/65
f 67/67 125/125 68/68
f 70/70 126/126 71/71
f 73/73 127/127 74/74
f 76/76 128/128 77/77
f 79/79 129/129 80/80
f 82/82 130/130 83/83
f 85/85 131/131 86/86
f 88/88 132/132 89/89
f 93/93 133/133 134/134
f 133/133 135/135 134/134
f 135/135 136/136 134/134
f 134/134 137/137 138/138
f 138/138 139/139 140/140
f 140/140 141/141 142/142
f 142/142 143/143 140/140
f 143/143 144/144 140/140
f 144/144 145/145 91/91
f 145/145 146/146 91/91
f 146/146 147/147 91/91
f 91/91 148/148 149/149
f 149/149 150/150 151/151
f 151/151 152/152 153/153
f 153/153 154/154 92/92
f 92/92 155/155 156/156
f 155/155 157/157 156/156
f 157/157 158/158 156/156
f 156/156 159/159 160/160
f 160/160 161/161 93/93
f 134/134 138/138 93/93
f 138/138 140/140 93/93
f 91/91 149/149 151/151
f 151/151 153/153 92/92
f 156/156 160/160 93/93
f 140/140 144/144 93/93
f 144/144 91/91 93/93
f 91/91 151/151 92/92
f 92/92 156/156 93/93
f 94/94 162/162 95/95
f 97/97 163/163 98/98
f 100/100 164/164 165/165
f 165/165 166/166 167/167
f 167/167 168/168 169/169
f 169/169 170/170 167/167
f 170/170 101/101 167/167
f 101/101 171/171 172/172
f 172/172 173/173 174/174
f 174/174 175/175 176/176
f 176/176 177/177 174/174
f 177/177 102/102 174/174
f 102/102 178/178 179/179
f 179/179 180/180 102/102
f 180/180 181/181 102/102
f 181/181 182/182 183/183
f 183/183 184/184 185/185
f 185/185 186/186 187/187
f 187/187 188/188 189/189
f 189/189 190/190 100/100
f 190/190 191/191 100/100
f 191/191 192/192 100/100
f 100/100 165/165 101/101
f 165/165 167/167 101/101
f 101/101 172/172 174/174
f 181/181 183/183 185/185
f 185/185 187/187 100/100
f 187/187 189/189 100/100
f 101/101 174/174 102/102
f 102/102 181/181 100/100
f 181/181 185/185 100/100

