# https://github.com/mikedh/trimesh
mtllib material.mtl
usemtl material_0
v -0.06303164 0.06983199 -0.08007281
v -0.07003165 0.06283199 -0.08007281
v -0.06303164 0.05583199 -0.08007281
v -0.05656448 0.06551078 -0.08007281
v -0.06035286 0.05636483 -0.08007281
v -0.06949880 0.06015321 -0.08007281
v -0.06303164 0.06983199 -0.07957451
v -0.07003165 0.06283199 -0.07957451
v -0.06303164 0.05583199 -0.07957451
v -0.06439728 0.05596649 -0.08007281
v -0.06571043 0.05636483 -0.07957451
v -0.06571043 0.05636483 -0.08007281
v -0.06571043 0.06929915 -0.08007281
v -0.06439728 0.06969749 -0.07957451
v -0.06439728 0.06969749 -0.08007281
v -0.05914265 0.06865228 -0.08007281
v -0.05808189 0.06778174 -0.07957451
v -0.05808189 0.06778174 -0.08007281
v -0.06303164 0.05583199 -0.08007281
v -0.06439728 0.05596649 -0.07957451
v -0.06439728 0.05596649 -0.08007281
v -0.06692064 0.06865228 -0.08007281
v -0.06571043 0.06929915 -0.07957451
v -0.06571043 0.06929915 -0.08007281
v -0.06035286 0.06929915 -0.08007281
v -0.05914265 0.06865228 -0.07957451
v -0.05914265 0.06865228 -0.08007281
v -0.06166601 0.05596649 -0.08007281
v -0.06303164 0.05583199 -0.07957451
v -0.06303164 0.05583199 -0.08007281
v -0.06798139 0.06778174 -0.08007281
v -0.06692064 0.06865228 -0.07957451
v -0.06692064 0.06865228 -0.08007281
v -0.06166601 0.06969749 -0.08007281
v -0.06035286 0.06929915 -0.07957451
v -0.06035286 0.06929915 -0.08007281
v -0.06035286 0.05636483 -0.08007281
v -0.06166601 0.05596649 -0.07957451
v -0.06166601 0.05596649 -0.08007281
v -0.06885193 0.06672098 -0.08007281
v -0.06798139 0.06778174 -0.07957451
v -0.06798139 0.06778174 -0.08007281
v -0.06303164 0.06983199 -0.08007281
v -0.06166601 0.06969749 -0.07957451
v -0.06166601 0.06969749 -0.08007281
v -0.05914265 0.05701170 -0.08007281
v -0.06035286 0.05636483 -0.07957451
v -0.06035286 0.05636483 -0.08007281
v -0.06949880 0.06551078 -0.08007281
v -0.06885193 0.06672098 -0.07957451
v -0.06885193 0.06672098 -0.08007281
v -0.05808189 0.05788224 -0.08007281
v -0.05914265 0.05701170 -0.07957451
v -0.05914265 0.05701170 -0.08007281
v -0.06989714 0.06419762 -0.08007281
v -0.06949880 0.06551078 -0.07957451
v -0.06949880 0.06551078 -0.08007281
v -0.05721135 0.05894300 -0.08007281
v -0.05808189 0.05788224 -0.07957451
v -0.05808189 0.05788224 -0.08007281
v -0.07003165 0.06283199 -0.08007281
v -0.06989714 0.06419762 -0.07957451
v -0.06989714 0.06419762 -0.08007281
v -0.05656448 0.06015320 -0.08007281
v -0.05721135 0.05894300 -0.07957451
v -0.05721135 0.05894300 -0.08007281
v -0.06989714 0.06146636 -0.08007281
v -0.07003165 0.06283199 -0.07957451
v -0.07003165 0.06283199 -0.08007281
v -0.05616614 0.06146636 -0.08007281
v -0.05656448 0.06015320 -0.07957451
v -0.05656448 0.06015320 -0.08007281
v -0.06949880 0.06015321 -0.08007281
v -0.06989714 0.06146636 -0.07957451
v -0.06989714 0.06146636 -0.08007281
v -0.05603164 0.06283199 -0.08007281
v -0.05616614 0.06146636 -0.07957451
v -0.05616614 0.06146636 -0.08007281
v -0.06885193 0.05894300 -0.08007281
v -0.06949880 0.06015321 -0.07957451
v -0.06949880 0.06015321 -0.08007281
v -0.05616614 0.06419762 -0.08007281
v -0.05603164 0.06283199 -0.07957451
v -0.05603164 0.06283199 -0.08007281
v -0.06798139 0.05788224 -0.08007281
v -0.06885193 0.05894300 -0.07957451
v -0.06885193 0.05894300 -0.08007281
v -0.05656448 0.06551078 -0.08007281
v -0.05616614 0.06419762 -0.07957451
v -0.05616614 0.06419762 -0.08007281
v -0.06692064 0.05701170 -0.08007281
v -0.06798139 0.05788224 -0.07957451
v -0.06798139 0.05788224 -0.08007281
v -0.05721135 0.06672098 -0.08007281
v -0.05656448 0.06551078 -0.07957451
v -0.05656448 0.06551078 -0.08007281
v -0.06571043 0.05636483 -0.08007281
v -0.06692064 0.05701170 -0.07957451
v -0.06692064 0.05701170 -0.08007281
v -0.06439728 0.06969749 -0.08007281
v -0.06303164 0.06983199 -0.07957451
v -0.06303164 0.06983199 -0.08007281
v -0.05808189 0.06778174 -0.08007281
v -0.05721135 0.06672098 -0.07957451
v -0.05721135 0.06672098 -0.08007281
v -0.06439728 0.06969749 -0.08007281
v -0.06798139 0.06778174 -0.08007281
v -0.06571043 0.06929915 -0.08007281
v -0.06692064 0.06865228 -0.08007281
v -0.06885193 0.06672098 -0.08007281
v -0.06949880 0.06551078 -0.08007281
v -0.06989714 0.06419762 -0.08007281
v -0.06989714 0.06146636 -0.08007281
v -0.06798139 0.05788224 -0.08007281
v -0.06949880 0.06015321 -0.08007281
v -0.06885193 0.05894300 -0.08007281
v -0.06692064 0.05701170 -0.08007281
v -0.06571043 0.05636483 -0.08007281
v -0.06439728 0.05596649 -0.08007281
v -0.06166601 0.05596649 -0.08007281
v -0.06035286 0.05636483 -0.08007281
v -0.05914265 0.05701170 -0.08007281
v -0.05808189 0.05788224 -0.08007281
v -0.05721135 0.05894300 -0.08007281
v -0.05656448 0.06015320 -0.08007281
v -0.05616614 0.06146636 -0.08007281
v -0.05603164 0.06283199 -0.08007281
v -0.05616614 0.06419762 -0.08007281
v -0.05656448 0.06551078 -0.08007281
v -0.05721135 0.06672098 -0.08007281
v -0.05808189 0.06778174 -0.08007281
v -0.05914265 0.06865228 -0.08007281
v -0.06035286 0.06929915 -0.08007281
v -0.06166601 0.06969749 -0.08007281
v -0.06571043 0.06929915 -0.08007281
v -0.06439728 0.06969749 -0.08007281
v -0.06035286 0.06929915 -0.08007281
v -0.06303164 0.06983199 -0.08007281
v -0.06166601 0.06969749 -0.08007281
v -0.05914265 0.06865228 -0.08007281
v -0.05808189 0.06778174 -0.08007281
v -0.05721135 0.06672098 -0.08007281
v -0.05616614 0.06419762 -0.08007281
v -0.05603164 0.06283199 -0.08007281
v -0.05616614 0.06146636 -0.08007281
v -0.05656448 0.06015320 -0.08007281
v -0.05721135 0.05894300 -0.08007281
v -0.05808189 0.05788224 -0.08007281
v -0.05914265 0.05701170 -0.08007281
v -0.06166601 0.05596649 -0.08007281
v -0.06303164 0.05583199 -0.08007281
v -0.06439728 0.05596649 -0.08007281
v -0.06571043 0.05636483 -0.08007281
v -0.06692064 0.05701170 -0.08007281
v -0.06798139 0.05788224 -0.08007281
v -0.06885193 0.05894300 -0.08007281
v -0.06989714 0.06146636 -0.08007281
v -0.07003165 0.06283199 -0.08007281
v -0.06989714 0.06419762 -0.08007281
v -0.06949880 0.06551078 -0.08007281
v -0.06885193 0.06672098 -0.08007281
v -0.06798139 0.06778174 -0.08007281
v -0.06692064 0.06865228 -0.08007281
v -0.06439728 0.06969749 -0.07957451
v -0.06798139 0.06778174 -0.07957451
v -0.06571043 0.06929915 -0.07957451
v -0.06692064 0.06865228 -0.07957451
v -0.06885193 0.06672098 -0.07957451
v -0.06949880 0.06551078 -0.07957451
v -0.06989714 0.06419762 -0.07957451
v -0.06989714 0.06146636 -0.07957451
v -0.06798139 0.05788224 -0.07957451
v -0.06949880 0.06015321 -0.07957451
v -0.06885193 0.05894300 -0.07957451
v -0.06692064 0.05701170 -0.07957451
v -0.06571043 0.05636483 -0.07957451
v -0.06439728 0.05596649 -0.07957451
v -0.06166601 0.05596649 -0.07957451
v -0.06035286 0.05636483 -0.07957451
v -0.05914265 0.05701170 -0.07957451
v -0.05808189 0.05788224 -0.07957451
v -0.05721135 0.05894300 -0.07957451
v -0.05656448 0.06015320 -0.07957451
v -0.05616614 0.06146636 -0.07957451
v -0.05603164 0.06283199 -0.07957451
v -0.05616614 0.06419762 -0.07957451
v -0.05656448 0.06551078 -0.07957451
v -0.05721135 0.06672098 -0.07957451
v -0.05808189 0.06778174 -0.07957451
v -0.05914265 0.06865228 -0.07957451
v -0.06035286 0.06929915 -0.07957451
v -0.06166601 0.06969749 -0.07957451
v -0.06439728 0.05596649 -0.07957451
v -0.06571043 0.06929915 -0.07957451
v -0.05914265 0.06865228 -0.07957451
v -0.06303164 0.05583199 -0.07957451
v -0.06692064 0.06865228 -0.07957451
v -0.06035286 0.06929915 -0.07957451
v -0.06166601 0.05596649 -0.07957451
v -0.06798139 0.06778174 -0.07957451
v -0.06166601 0.06969749 -0.07957451
v -0.06035286 0.05636483 -0.07957451
v -0.06885193 0.06672098 -0.07957451
v -0.06303164 0.06983199 -0.07957451
v -0.05914265 0.05701170 -0.07957451
v -0.06949880 0.06551078 -0.07957451
v -0.05808189 0.05788224 -0.07957451
v -0.06989714 0.06419762 -0.07957451
v -0.05721135 0.05894300 -0.07957451
v -0.07003165 0.06283199 -0.07957451
v -0.05656448 0.06015320 -0.07957451
v -0.06989714 0.06146636 -0.07957451
v -0.05616614 0.06146636 -0.07957451
v -0.06949880 0.06015321 -0.07957451
v -0.05603164 0.06283199 -0.07957451
v -0.06885193 0.05894300 -0.07957451
v -0.05616614 0.06419762 -0.07957451
v -0.06798139 0.05788224 -0.07957451
v -0.05656448 0.06551078 -0.07957451
v -0.06692064 0.05701170 -0.07957451
v -0.05721135 0.06672098 -0.07957451
v -0.06571043 0.05636483 -0.07957451
v -0.06439728 0.06969749 -0.07957451
v -0.05808189 0.06778174 -0.07957451
v -0.07820982 -0.03498783 -0.11754785
v -0.07820982 -0.02601183 -0.11754884
v -0.07820982 -0.03498783 -0.12228944
v -0.07658717 -0.02601183 -0.11754884
v -0.07658717 -0.02921277 -0.11434790
v -0.07658717 -0.03498783 -0.11754785
v -0.07820982 -0.02601183 -0.11754884
v -0.07658717 -0.02601183 -0.12228944
v -0.07820982 -0.02601183 -0.12228944
v -0.07820982 -0.03498783 -0.11754785
v -0.07658717 -0.03178789 -0.11434790
v -0.07820982 -0.03178789 -0.11434790
v -0.07820982 -0.02921277 -0.11434790
v -0.07658717 -0.02601183 -0.11754884
v -0.07820982 -0.02601183 -0.11754884
v -0.07820982 -0.02601183 -0.12228944
v -0.07658717 -0.03498783 -0.12228944
v -0.07820982 -0.03498783 -0.12228944
v -0.07820982 -0.03498783 -0.12228944
v -0.07658717 -0.03498783 -0.11754785
v -0.07820982 -0.03498783 -0.11754785
v -0.07820982 -0.03178789 -0.11434790
v -0.07658717 -0.02921277 -0.11434790
v -0.07820982 -0.02921277 -0.11434790
v -0.07820982 -0.03178789 -0.11434790
v -0.07820982 -0.02921277 -0.11434790
v -0.07820982 -0.02601183 -0.12228944
v -0.07658717 -0.03178789 -0.11434790
v -0.07658717 -0.03498783 -0.12228944
v -0.07658717 -0.02601183 -0.12228944
v -0.07658717 -0.02601183 -0.11754884
v -0.07658717 -0.03498783 -0.11754785
v -0.07658717 -0.02921277 -0.11434790
v -0.07658717 -0.02601183 -0.12228944
v -0.07658717 -0.03498783 -0.12228944
v -0.07658717 -0.03178789 -0.11434790
v -0.07820599 -0.05359055 -0.11983456
v -0.07820599 -0.05523947 -0.11915156
v -0.07820599 -0.05455647 -0.11750264
v -0.07698990 -0.05281148 -0.11866860
v -0.07698990 -0.05407351 -0.11740657
v -0.07698990 -0.05533553 -0.11866860
v -0.07820599 -0.05302417 -0.11936975
v -0.07698990 -0.05318112 -0.11956099
v -0.07820599 -0.05318112 -0.11956099
v -0.07820599 -0.05533553 -0.11866860
v -0.07698990 -0.05531129 -0.11842239
v -0.07820599 -0.05531129 -0.11842239
v -0.07820599 -0.05302417 -0.11796746
v -0.07698990 -0.05290755 -0.11818564
v -0.07820599 -0.05290755 -0.11818564
v -0.07820599 -0.05290755 -0.11915156
v -0.07698990 -0.05302417 -0.11936975
v -0.07820599 -0.05302417 -0.11936975
v -0.07820599 -0.05531129 -0.11891481
v -0.07698990 -0.05533553 -0.11866860
v -0.07820599 -0.05533553 -0.11866860
v -0.07820599 -0.05318112 -0.11777621
v -0.07698990 -0.05302417 -0.11796746
v -0.07820599 -0.05302417 -0.11796746
v -0.07820599 -0.05283573 -0.11891481
v -0.07698990 -0.05290755 -0.11915156
v -0.07820599 -0.05290755 -0.11915156
v -0.07820599 -0.05523947 -0.11915156
v -0.07698990 -0.05531129 -0.11891481
v -0.07820599 -0.05531129 -0.11891481
v -0.07820599 -0.05337236 -0.11761926
v -0.07698990 -0.05318112 -0.11777621
v -0.07820599 -0.05318112 -0.11777621
v -0.07820599 -0.05281148 -0.11866860
v -0.07698990 -0.05283573 -0.11891481
v -0.07820599 -0.05283573 -0.11891481
v -0.07820599 -0.05512284 -0.11936975
v -0.07698990 -0.05523947 -0.11915156
v -0.07820599 -0.05523947 -0.11915156
v -0.07820599 -0.05359055 -0.11750264
v -0.07698990 -0.05337236 -0.11761926
v -0.07820599 -0.05337236 -0.11761926
v -0.07820599 -0.05496590 -0.11956099
v -0.07698990 -0.05512284 -0.11936975
v -0.07820599 -0.05512284 -0.11936975
v -0.07820599 -0.05382730 -0.11743082
v -0.07698990 -0.05359055 -0.11750264
v -0.07820599 -0.05359055 -0.11750264
v -0.07820599 -0.05477465 -0.11971794
v -0.07698990 -0.05496590 -0.11956099
v -0.07820599 -0.05496590 -0.11956099
v -0.07820599 -0.05407351 -0.11740657
v -0.07698990 -0.05382730 -0.11743082
v -0.07820599 -0.05382730 -0.11743082
v -0.07820599 -0.05455647 -0.11983456
v -0.07698990 -0.05477465 -0.11971794
v -0.07820599 -0.05477465 -0.11971794
v -0.07820599 -0.05431972 -0.11743082
v -0.07698990 -0.05407351 -0.11740657
v -0.07820599 -0.05407351 -0.11740657
v -0.07820599 -0.05431972 -0.11990638
v -0.07698990 -0.05455647 -0.11983456
v -0.07820599 -0.05455647 -0.11983456
v -0.07820599 -0.05455647 -0.11750264
v -0.07698990 -0.05431972 -0.11743082
v -0.07820599 -0.05431972 -0.11743082
v -0.07820599 -0.05407351 -0.11993063
v -0.07698990 -0.05431972 -0.11990638
v -0.07820599 -0.05431972 -0.11990638
v -0.07820599 -0.05477465 -0.11761926
v -0.07698990 -0.05455647 -0.11750264
v -0.07820599 -0.05455647 -0.11750264
v -0.07820599 -0.05382730 -0.11990638
v -0.07698990 -0.05407351 -0.11993063
v -0.07820599 -0.05407351 -0.11993063
v -0.07820599 -0.05496590 -0.11777621
v -0.07698990 -0.05477465 -0.11761926
v -0.07820599 -0.05477465 -0.11761926
v -0.07820599 -0.05359055 -0.11983456
v -0.07698990 -0.05382730 -0.11990638
v -0.07820599 -0.05382730 -0.11990638
v -0.07820599 -0.05512285 -0.11796746
v -0.07698990 -0.05496590 -0.11777621
v -0.07820599 -0.05496590 -0.11777621
v -0.07820599 -0.05337236 -0.11971794
v -0.07698990 -0.05359055 -0.11983456
v -0.07820599 -0.05359055 -0.11983456
v -0.07820599 -0.05523947 -0.11818564
v -0.07698990 -0.05512285 -0.11796746
v -0.07820599 -0.05512285 -0.11796746
v -0.07820599 -0.05283573 -0.11842239
v -0.07698990 -0.05281148 -0.11866860
v -0.07820599 -0.05281148 -0.11866860
v -0.07820599 -0.05318112 -0.11956099
v -0.07698990 -0.05337236 -0.11971794
v -0.07820599 -0.05337236 -0.11971794
v -0.07820599 -0.05531129 -0.11842239
v -0.07698990 -0.05523947 -0.11818564
v -0.07820599 -0.05523947 -0.11818564
v -0.07820599 -0.05290755 -0.11818564
v -0.07698990 -0.05283573 -0.11842239
v -0.07820599 -0.05283573 -0.11842239
v -0.07820599 -0.05290755 -0.11818564
v -0.07820599 -0.05283573 -0.11842239
v -0.07820599 -0.05290755 -0.11915156
v -0.07820599 -0.05281148 -0.11866860
v -0.07820599 -0.05283573 -0.11891481
v -0.07820599 -0.05302417 -0.11936975
v -0.07820599 -0.05318112 -0.11956099
v -0.07820599 -0.05337236 -0.11971794
v -0.07820599 -0.05382730 -0.11990638
v -0.07820599 -0.05407351 -0.11993063
v -0.07820599 -0.05431972 -0.11990638
v -0.07820599 -0.05455647 -0.11983456
v -0.07820599 -0.05477465 -0.11971794
v -0.07820599 -0.05496590 -0.11956099
v -0.07820599 -0.05512284 -0.11936975
v -0.07820599 -0.05531129 -0.11891481
v -0.07820599 -0.05533553 -0.11866860
v -0.07820599 -0.05531129 -0.11842239
v -0.07820599 -0.05523947 -0.11818564
v -0.07820599 -0.05512285 -0.11796746
v -0.07820599 -0.05496590 -0.11777621
v -0.07820599 -0.05477465 -0.11761926
v -0.07820599 -0.05431972 -0.11743082
v -0.07820599 -0.05407351 -0.11740657
v -0.07820599 -0.05382730 -0.11743082
v -0.07820599 -0.05359055 -0.11750264
v -0.07820599 -0.05337236 -0.11761926
v -0.07820599 -0.05318112 -0.11777621
v -0.07820599 -0.05302417 -0.11796746
v -0.07698990 -0.05283573 -0.11842239
v -0.07698990 -0.05318112 -0.11777621
v -0.07698990 -0.05290755 -0.11818564
v -0.07698990 -0.05302417 -0.11796746
v -0.07698990 -0.05337236 -0.11761926
v -0.07698990 -0.05359055 -0.11750264
v -0.07698990 -0.05382730 -0.11743082
v -0.07698990 -0.05431972 -0.11743082
v -0.07698990 -0.05496590 -0.11777621
v -0.07698990 -0.05455647 -0.11750264
v -0.07698990 -0.05477465 -0.11761926
v -0.07698990 -0.05512285 -0.11796746
v -0.07698990 -0.05523947 -0.11818564
v -0.07698990 -0.05531129 -0.11842239
v -0.07698990 -0.05531129 -0.11891481
v -0.07698990 -0.05523947 -0.11915156
v -0.07698990 -0.05512284 -0.11936975
v -0.07698990 -0.05496590 -0.11956099
v -0.07698990 -0.05477465 -0.11971794
v -0.07698990 -0.05455647 -0.11983456
v -0.07698990 -0.05431972 -0.11990638
v -0.07698990 -0.05407351 -0.11993063
v -0.07698990 -0.05382730 -0.11990638
v -0.07698990 -0.05359055 -0.11983456
v -0.07698990 -0.05337236 -0.11971794
v -0.07698990 -0.05318112 -0.11956099
v -0.07698990 -0.05302417 -0.11936975
v -0.07698990 -0.05290755 -0.11915156
v -0.07698990 -0.05283573 -0.11891481
v -0.07698990 -0.05302417 -0.11936975
v -0.07698990 -0.05533553 -0.11866860
v -0.07698990 -0.05302417 -0.11796746
v -0.07698990 -0.05290755 -0.11915156
v -0.07698990 -0.05531129 -0.11891481
v -0.07698990 -0.05318112 -0.11777621
v -0.07698990 -0.05283573 -0.11891481
v -0.07698990 -0.05523947 -0.11915156
v -0.07698990 -0.05337236 -0.11761926
v -0.07698990 -0.05281148 -0.11866860
v -0.07698990 -0.05512284 -0.11936975
v -0.07698990 -0.05359055 -0.11750264
v -0.07698990 -0.05496590 -0.11956099
v -0.07698990 -0.05382730 -0.11743082
v -0.07698990 -0.05477465 -0.11971794
v -0.07698990 -0.05407351 -0.11740657
v -0.07698990 -0.05455647 -0.11983456
v -0.07698990 -0.05431972 -0.11743082
v -0.07698990 -0.05431972 -0.11990638
v -0.07698990 -0.05455647 -0.11750264
v -0.07698990 -0.05407351 -0.11993063
v -0.07698990 -0.05477465 -0.11761926
v -0.07698990 -0.05382730 -0.11990638
v -0.07698990 -0.05496590 -0.11777621
v -0.07698990 -0.05359055 -0.11983456
v -0.07698990 -0.05512285 -0.11796746
v -0.07698990 -0.05337236 -0.11971794
v -0.07698990 -0.05523947 -0.11818564
v -0.07698990 -0.05283573 -0.11842239
v -0.07698990 -0.05318112 -0.11956099
v -0.07698990 -0.05531129 -0.11842239
v -0.07698990 -0.05290755 -0.11818564
vt 0.00000000 0.00000000
vt 0.00000000 0.00000000
vt 0.00000000 0.00000000
vt 0.00000000 0.00000000
vt 0.00000000 0.00000000
vt 0.00000000 0.00000000
vt 0.00000000 0.00000000
vt 0.00000000 0.00000000
vt 0.00000000 0.00000000
vt 0.00000000 0.00000000
vt 0.00000000 0.00000000
vt 0.00000000 0.00000000
vt 0.00000000 0.00000000
vt 0.00000000 0.00000000
vt 0.00000000 0.00000000
vt 0.00000000 0.00000000
vt 0.00000000 0.00000000
vt 0.00000000 0.00000000
vt 0.00000000 0.00000000
vt 0.00000000 0.00000000
vt 0.00000000 0.00000000
vt 0.00000000 0.00000000
vt 0.00000000 0.00000000
vt 0.00000000 0.00000000
vt 0.00000000 0.00000000
vt 0.00000000 0.00000000
vt 0.00000000 0.00000000
vt 0.00000000 0.00000000
vt 0.00000000 0.00000000
vt 0.00000000 0.00000000
vt 0.00000000 0.00000000
vt 0.00000000 0.00000000
vt 0.00000000 0.00000000
vt 0.00000000 0.00000000
vt 0.00000000 0.00000000
vt 0.00000000 0.00000000
vt 0.00000000 0.00000000
vt 0.00000000 0.00000000
vt 0.00000000 0.00000000
vt 0.00000000 0.00000000
vt 0.00000000 0.00000000
vt 0.00000000 0.00000000
vt 0.00000000 0.00000000
vt 0.00000000 0.00000000
vt 0.00000000 0.00000000
vt 0.00000000 0.00000000
vt 0.00000000 0.00000000
vt 0.00000000 0.00000000
vt 0.00000000 0.00000000
vt 0.00000000 0.00000000
vt 0.00000000 0.00000000
vt 0.00000000 0.00000000
vt 0.00000000 0.00000000
vt 0.00000000 0.00000000
vt 0.00000000 0.00000000
vt 0.00000000 0.00000000
vt 0.00000000 0.00000000
vt 0.00000000 0.00000000
vt 0.00000000 0.00000000
vt 0.00000000 0.00000000
vt 0.00000000 0.00000000
vt 0.00000000 0.00000000
vt 0.00000000 0.00000000
vt 0.00000000 0.00000000
vt 0.00000000 0.00000000
vt 0.00000000 0.00000000
vt 0.00000000 0.00000000
vt 0.00000000 0.00000000
vt 0.00000000 0.00000000
vt 0.00000000 0.00000000
vt 0.00000000 0.00000000
vt 0.00000000 0.00000000
vt 0.00000000 0.00000000
vt 0.00000000 0.00000000
vt 0.00000000 0.00000000
vt 0.00000000 0.00000000
vt 0.00000000 0.00000000
vt 0.00000000 0.00000000
vt 0.00000000 0.00000000
vt 0.00000000 0.00000000
vt 0.00000000 0.00000000
vt 0.00000000 0.00000000
vt 0.00000000 0.00000000
vt 0.00000000 0.00000000
vt 0.00000000 0.00000000
vt 0.00000000 0.00000000
vt 0.00000000 0.00000000
vt 0.00000000 0.00000000
vt 0.00000000 0.00000000
vt 0.00000000 0.00000000
vt 0.00000000 0.00000000
vt 0.00000000 0.00000000
vt 0.00000000 0.00000000
vt 0.00000000 0.00000000
vt 0.00000000 0.00000000
vt 0.00000000 0.00000000
vt 0.00000000 0.00000000
vt 0.00000000 0.00000000
vt 0.00000000 0.00000000
vt 0.00000000 0.00000000
vt 0.00000000 0.00000000
vt 0.00000000 0.00000000
vt 0.00000000 0.00000000
vt 0.00000000 0.00000000
vt 0.00000000 0.00000000
vt 0.00000000 0.00000000
vt 0.00000000 0.00000000
vt 0.00000000 0.00000000
vt 0.00000000 0.00000000
vt 0.00000000 0.00000000
vt 0.00000000 0.00000000
vt 0.00000000 0.00000000
vt 0.00000000 0.00000000
vt 0.00000000 0.00000000
vt 0.00000000 0.00000000
vt 0.00000000 0.00000000
vt 0.00000000 0.00000000
vt 0.00000000 0.00000000
vt 0.00000000 0.00000000
vt 0.00000000 0.00000000
vt 0.00000000 0.00000000
vt 0.00000000 0.00000000
vt 0.00000000 0.00000000
vt 0.00000000 0.00000000
vt 0.00000000 0.00000000
vt 0.00000000 0.00000000
vt 0.00000000 0.00000000
vt 0.00000000 0.00000000
vt 0.00000000 0.00000000
vt 0.00000000 0.00000000
vt 0.00000000 0.00000000
vt 0.00000000 0.00000000
vt 0.00000000 0.00000000
vt 0.00000000 0.00000000
vt 0.00000000 0.00000000
vt 0.00000000 0.00000000
vt 0.00000000 0.00000000
vt 0.00000000 0.00000000
vt 0.00000000 0.00000000
vt 0.00000000 0.00000000
vt 0.00000000 0.00000000
vt 0.00000000 0.00000000
vt 0.00000000 0.00000000
vt 0.00000000 0.00000000
vt 0.00000000 0.00000000
vt 0.00000000 0.00000000
vt 0.00000000 0.00000000
vt 0.00000000 0.00000000
vt 0.00000000 0.00000000
vt 0.00000000 0.00000000
vt 0.00000000 0.00000000
vt 0.00000000 0.00000000
vt 0.00000000 0.00000000
vt 0.00000000 0.00000000
vt 0.00000000 0.00000000
vt 0.00000000 0.00000000
vt 0.00000000 0.00000000
vt 0.00000000 0.00000000
vt 0.00000000 0.00000000
vt 0.00000000 0.00000000
vt 0.00000000 0.00000000
vt 0.00000000 0.00000000
vt 0.00000000 0.00000000
vt 0.00000000 0.00000000
vt 0.00000000 0.00000000
vt 0.00000000 0.00000000
vt 0.00000000 0.00000000
vt 0.00000000 0.00000000
vt 0.00000000 0.00000000
vt 0.00000000 0.00000000
vt 0.00000000 0.00000000
vt 0.00000000 0.00000000
vt 0.00000000 0.00000000
vt 0.00000000 0.00000000
vt 0.00000000 0.00000000
vt 0.00000000 0.00000000
vt 0.00000000 0.00000000
vt 0.00000000 0.00000000
vt 0.00000000 0.00000000
vt 0.00000000 0.00000000
vt 0.00000000 0.00000000
vt 0.00000000 0.00000000
vt 0.00000000 0.00000000
vt 0.00000000 0.00000000
vt 0.00000000 0.00000000
vt 0.00000000 0.00000000
vt 0.00000000 0.00000000
vt 0.00000000 0.00000000
vt 0.00000000 0.00000000
vt 0.00000000 0.00000000
vt 0.00000000 0.00000000
vt 0.00000000 0.00000000
vt 0.00000000 0.00000000
vt 0.00000000 0.00000000
vt 0.00000000 0.00000000
vt 0.00000000 0.00000000
vt 0.00000000 0.00000000
vt 0.00000000 0.00000000
vt 0.00000000 0.00000000
vt 0.00000000 0.00000000
vt 0.00000000 0.00000000
vt 0.00000000 0.00000000
vt 0.00000000 0.00000000
vt 0.00000000 0.00000000
vt 0.00000000 0.00000000
vt 0.00000000 0.00000000
vt 0.00000000 0.00000000
vt 0.00000000 0.00000000
vt 0.00000000 0.00000000
vt 0.00000000 0.00000000
vt 0.00000000 0.00000000
vt 0.00000000 0.00000000
vt 0.00000000 0.00000000
vt 0.00000000 0.00000000
vt 0.00000000 0.00000000
vt 0.00000000 0.00000000
vt 0.00000000 0.00000000
vt 0.00000000 0.00000000
vt 0.00000000 0.00000000
vt 0.00000000 0.00000000
vt 0.00000000 0.00000000
vt 0.00000000 0.00000000
vt 0.00000000 0.00000000
vt 0.00000000 0.00000000
vt 0.35650000 0.00000000
vt 0.35661101 1.00000000
vt 1.00000000 0.00000000
vt 0.35661101 1.00000000
vt 0.00000000 0.64338899
vt 0.35650000 0.00000000
vt 0.35661101 1.00000000
vt 1.00000000 1.00000000
vt 1.00000000 1.00000000
vt 0.35650000 0.00000000
vt 0.00000000 0.35650000
vt 0.00000000 0.35650000
vt 0.00000000 0.64338899
vt 0.35661101 1.00000000
vt 0.35661101 1.00000000
vt 1.00000000 1.00000000
vt 1.00000000 0.00000000
vt 1.00000000 0.00000000
vt 1.00000000 0.00000000
vt 0.35650000 0.00000000
vt 0.35650000 0.00000000
vt 0.00000000 0.35650000
vt 0.00000000 0.64338899
vt 0.00000000 0.64338899
vt 0.00000000 0.35650000
vt 0.00000000 0.64338899
vt 1.00000000 1.00000000
vt 0.00000000 0.35650000
vt 1.00000000 0.00000000
vt 1.00000000 1.00000000
vt 0.35661101 1.00000000
vt 0.35650000 0.00000000
vt 0.00000000 0.64338899
vt 1.00000000 1.00000000
vt 1.00000000 0.00000000
vt 0.00000000 0.35650000
vt 0.00000000 0.00000000
vt 0.00000000 0.00000000
vt 0.00000000 0.00000000
vt 0.00000000 0.00000000
vt 0.00000000 0.00000000
vt 0.00000000 0.00000000
vt 0.00000000 0.00000000
vt 0.00000000 0.00000000
vt 0.00000000 0.00000000
vt 0.00000000 0.00000000
vt 0.00000000 0.00000000
vt 0.00000000 0.00000000
vt 0.00000000 0.00000000
vt 0.00000000 0.00000000
vt 0.00000000 0.00000000
vt 0.00000000 0.00000000
vt 0.00000000 0.00000000
vt 0.00000000 0.00000000
vt 0.00000000 0.00000000
vt 0.00000000 0.00000000
vt 0.00000000 0.00000000
vt 0.00000000 0.00000000
vt 0.00000000 0.00000000
vt 0.00000000 0.00000000
vt 0.00000000 0.00000000
vt 0.00000000 0.00000000
vt 0.00000000 0.00000000
vt 0.00000000 0.00000000
vt 0.00000000 0.00000000
vt 0.00000000 0.00000000
vt 0.00000000 0.00000000
vt 0.00000000 0.00000000
vt 0.00000000 0.00000000
vt 0.00000000 0.00000000
vt 0.00000000 0.00000000
vt 0.00000000 0.00000000
vt 0.00000000 0.00000000
vt 0.00000000 0.00000000
vt 0.00000000 0.00000000
vt 0.00000000 0.00000000
vt 0.00000000 0.00000000
vt 0.00000000 0.00000000
vt 0.00000000 0.00000000
vt 0.00000000 0.00000000
vt 0.00000000 0.00000000
vt 0.00000000 0.00000000
vt 0.00000000 0.00000000
vt 0.00000000 0.00000000
vt 0.00000000 0.00000000
vt 0.00000000 0.00000000
vt 0.00000000 0.00000000
vt 0.00000000 0.00000000
vt 0.00000000 0.00000000
vt 0.00000000 0.00000000
vt 0.00000000 0.00000000
vt 0.00000000 0.00000000
vt 0.00000000 0.00000000
vt 0.00000000 0.00000000
vt 0.00000000 0.00000000
vt 0.00000000 0.00000000
vt 0.00000000 0.00000000
vt 0.00000000 0.00000000
vt 0.00000000 0.00000000
vt 0.00000000 0.00000000
vt 0.00000000 0.00000000
vt 0.00000000 0.00000000
vt 0.00000000 0.00000000
vt 0.00000000 0.00000000
vt 0.00000000 0.00000000
vt 0.00000000 0.00000000
vt 0.00000000 0.00000000
vt 0.00000000 0.00000000
vt 0.00000000 0.00000000
vt 0.00000000 0.00000000
vt 0.00000000 0.00000000
vt 0.00000000 0.00000000
vt 0.00000000 0.00000000
vt 0.00000000 0.00000000
vt 0.00000000 0.00000000
vt 0.00000000 0.00000000
vt 0.00000000 0.00000000
vt 0.00000000 0.00000000
vt 0.00000000 0.00000000
vt 0.00000000 0.00000000
vt 0.00000000 0.00000000
vt 0.00000000 0.00000000
vt 0.00000000 0.00000000
vt 0.00000000 0.00000000
vt 0.00000000 0.00000000
vt 0.00000000 0.00000000
vt 0.00000000 0.00000000
vt 0.00000000 0.00000000
vt 0.00000000 0.00000000
vt 0.00000000 0.00000000
vt 0.00000000 0.00000000
vt 0.00000000 0.00000000
vt 0.00000000 0.00000000
vt 0.00000000 0.00000000
vt 0.00000000 0.00000000
vt 0.00000000 0.00000000
vt 0.00000000 0.00000000
vt 0.00000000 0.00000000
vt 0.00000000 0.00000000
vt 0.00000000 0.00000000
vt 0.00000000 0.00000000
vt 0.00000000 0.00000000
vt 0.00000000 0.00000000
vt 0.00000000 0.00000000
vt 0.00000000 0.00000000
vt 0.00000000 0.00000000
vt 0.00000000 0.00000000
vt 0.00000000 0.00000000
vt 0.00000000 0.00000000
vt 0.00000000 0.00000000
vt 0.00000000 0.00000000
vt 0.00000000 0.00000000
vt 0.00000000 0.00000000
vt 0.00000000 0.00000000
vt 0.00000000 0.00000000
vt 0.00000000 0.00000000
vt 0.00000000 0.00000000
vt 0.00000000 0.00000000
vt 0.00000000 0.00000000
vt 0.00000000 0.00000000
vt 0.00000000 0.00000000
vt 0.00000000 0.00000000
vt 0.00000000 0.00000000
vt 0.00000000 0.00000000
vt 0.00000000 0.00000000
vt 0.00000000 0.00000000
vt 0.00000000 0.00000000
vt 0.00000000 0.00000000
vt 0.00000000 0.00000000
vt 0.00000000 0.00000000
vt 0.00000000 0.00000000
vt 0.00000000 0.00000000
vt 0.00000000 0.00000000
vt 0.00000000 0.00000000
vt 0.00000000 0.00000000
vt 0.00000000 0.00000000
vt 0.00000000 0.00000000
vt 0.00000000 0.00000000
vt 0.00000000 0.00000000
vt 0.00000000 0.00000000
vt 0.00000000 0.00000000
vt 0.00000000 0.00000000
vt 0.00000000 0.00000000
vt 0.00000000 0.00000000
vt 0.00000000 0.00000000
vt 0.00000000 0.00000000
vt 0.00000000 0.00000000
vt 0.00000000 0.00000000
vt 0.00000000 0.00000000
vt 0.00000000 0.00000000
vt 0.00000000 0.00000000
vt 0.00000000 0.00000000
vt 0.00000000 0.00000000
vt 0.00000000 0.00000000
vt 0.00000000 0.00000000
vt 0.00000000 0.00000000
vt 0.00000000 0.00000000
vt 0.00000000 0.00000000
vt 0.00000000 0.00000000
vt 0.00000000 0.00000000
vt 0.00000000 0.00000000
vt 0.00000000 0.00000000
vt 0.00000000 0.00000000
vt 0.00000000 0.00000000
vt 0.00000000 0.00000000
vt 0.00000000 0.00000000
vt 0.00000000 0.00000000
vt 0.00000000 0.00000000
vt 0.00000000 0.00000000
vt 0.00000000 0.00000000
vt 0.00000000 0.00000000
vt 0.00000000 0.00000000
vt 0.00000000 0.00000000
vt 0.00000000 0.00000000
vt 0.00000000 0.00000000
vt 0.00000000 0.00000000
vt 0.00000000 0.00000000
vt 0.00000000 0.00000000
vt 0.00000000 0.00000000
vt 0.00000000 0.00000000
vt 0.00000000 0.00000000
vt 0.00000000 0.00000000
vt 0.00000000 0.00000000
vt 0.00000000 0.00000000
vt 0.00000000 0.00000000
vt 0.00000000 0.00000000
vt 0.00000000 0.00000000
vt 0.00000000 0.00000000
f 1/1 2/2 3/3
f 4/4 5/5 6/6
f 7/7 8/8 9/9
f 10/10 11/11 12/12
f 13/13 14/14 15/15
f 16/16 17/17 18/18
f 19/19 20/20 21/21
f 22/22 23/23 24/24
f 25/25 26/26 27/27
f 28/28 29/29 30/30
f 31/31 32/32 33/33
f 34/34 35/35 36/36
f 37/37 38/38 39/39
f 40/40 41/41 42/42
f 43/43 44/44 45/45
f 46/46 47/47 48/48
f 49/49 50/50 51/51
f 52/52 53/53 54/54
f 55/55 56/56 57/57
f 58/58 59/59 60/60
f 61/61 62/62 63/63
f 64/64 65/65 66/66
f 67/67 68/68 69/69
f 70/70 71/71 72/72
f 73/73 74/74 75/75
f 76/76 77/77 78/78
f 79/79 80/80 81/81
f 82/82 83/83 84/84
f 85/85 86/86 87/87
f 88/88 89/89 90/90
f 91/91 92/92 93/93
f 94/94 95/95 96/96
f 97/97 98/98 99/99
f 100/100 101/101 102/102
f 103/103 104/104 105/105
f 1/1 106/106 107/107
f 106/106 108/108 107/107
f 108/108 109/109 107/107
f 107/107 110/110 111/111
f 111/111 112/112 107/107
f 112/112 2/2 107/107
f 2/2 113/113 114/114
f 113/113 115/115 114/114
f 115/115 116/116 114/114
f 114/114 117/117 118/118
f 118/118 119/119 3/3
f 3/3 120/120 121/121
f 121/121 122/122 123/123
f 123/123 124/124 125/125
f 125/125 126/126 123/123
f 126/126 127/127 123/123
f 127/127 128/128 129/129
f 129/129 130/130 127/127
f 130/130 131/131 127/127
f 131/131 132/132 133/133
f 133/133 134/134 131/131
f 134/134 1/1 131/131
f 114/114 118/118 2/2
f 118/118 3/3 2/2
f 3/3 121/121 127/127
f 121/121 123/123 127/127
f 1/1 107/107 2/2
f 127/127 131/131 3/3
f 131/131 1/1 3/3
f 135/135 136/136 137/137
f 136/136 138/138 137/137
f 138/138 139/139 137/137
f 137/137 140/140 141/141
f 141/141 142/142 137/137
f 142/142 4/4 137/137
f 4/4 143/143 144/144
f 144/144 145/145 146/146
f 146/146 147/147 148/148
f 148/148 149/149 5/5
f 5/5 150/150 151/151
f 151/151 152/152 153/153
f 153/153 154/154 155/155
f 155/155 156/156 6/6
f 6/6 157/157 158/158
f 158/158 159/159 160/160
f 160/160 161/161 162/162
f 162/162 163/163 135/135
f 4/4 144/144 5/5
f 144/144 146/146 5/5
f 146/146 148/148 5/5
f 5/5 151/151 153/153
f 153/153 155/155 5/5
f 155/155 6/6 5/5
f 6/6 158/158 135/135
f 158/158 160/160 135/135
f 160/160 162/162 135/135
f 135/135 137/137 4/4
f 135/135 4/4 6/6
f 7/7 164/164 165/165
f 164/164 166/166 165/165
f 166/166 167/167 165/165
f 165/165 168/168 169/169
f 169/169 170/170 165/165
f 170/170 8/8 165/165
f 8/8 171/171 172/172
f 171/171 173/173 172/172
f 173/173 174/174 172/172
f 172/172 175/175 176/176
f 176/176 177/177 9/9
f 9/9 178/178 179/179
f 179/179 180/180 181/181
f 181/181 182/182 183/183
f 183/183 184/184 181/181
f 184/184 185/185 181/181
f 185/185 186/186 187/187
f 187/187 188/188 185/185
f 188/188 189/189 185/185
f 189/189 190/190 191/191
f 191/191 192/192 189/189
f 192/192 7/7 189/189
f 172/172 176/176 8/8
f 176/176 9/9 8/8
f 9/9 179/179 185/185
f 179/179 181/181 185/185
f 7/7 165/165 8/8
f 185/185 189/189 9/9
f 189/189 7/7 9/9
f 10/10 193/193 11/11
f 13/13 194/194 14/14
f 16/16 195/195 17/17
f 19/19 196/196 20/20
f 22/22 197/197 23/23
f 25/25 198/198 26/26
f 28/28 199/199 29/29
f 31/31 200/200 32/32
f 34/34 201/201 35/35
f 37/37 202/202 38/38
f 40/40 203/203 41/41
f 43/43 204/204 44/44
f 46/46 205/205 47/47
f 49/49 206/206 50/50
f 52/52 207/207 53/53
f 55/55 208/208 56/56
f 58/58 209/209 59/59
f 61/61 210/210 62/62
f 64/64 211/211 65/65
f 67/67 212/212 68/68
f 70/70 213/213 71/71
f 73/73 214/214 74/74
f 76/76 215/215 77/77
f 79/79 216/216 80/80
f 82/82 217/217 83/83
f 85/85 218/218 86/86
f 88/88 219/219 89/89
f 91/91 220/220 92/92
f 94/94 221/221 95/95
f 97/97 222/222 98/98
f 100/100 223/223 101/101
f 103/103 224/224 104/104
f 225/225 226/226 227/227
f 228/228 229/229 230/230
f 231/231 232/232 233/233
f 234/234 235/235 236/236
f 237/237 238/238 239/239
f 240/240 241/241 242/242
f 243/243 244/244 245/245
f 246/246 247/247 248/248
f 225/225 249/249 250/250
f 250/250 226/226 225/225
f 226/226 251/251 227/227
f 229/229 252/252 230/230
f 230/230 253/253 228/228
f 253/253 254/254 228/228
f 231/231 255/255 232/232
f 234/234 256/256 235/235
f 237/237 257/257 238/238
f 240/240 258/258 241/241
f 243/243 259/259 244/244
f 246/246 260/260 247/247
f 261/261 262/262 263/263
f 264/264 265/265 266/266
f 267/267 268/268 269/269
f 270/270 271/271 272/272
f 273/273 274/274 275/275
f 276/276 277/277 278/278
f 279/279 280/280 281/281
f 282/282 283/283 284/284
f 285/285 286/286 287/287
f 288/288 289/289 290/290
f 291/291 292/292 293/293
f 294/294 295/295 296/296
f 297/297 298/298 299/299
f 300/300 301/301 302/302
f 303/303 304/304 305/305
f 306/306 307/307 308/308
f 309/309 310/310 311/311
f 312/312 313/313 314/314
f 315/315 316/316 317/317
f 318/318 319/319 320/320
f 321/321 322/322 323/323
f 324/324 325/325 326/326
f 327/327 328/328 329/329
f 330/330 331/331 332/332
f 333/333 334/334 335/335
f 336/336 337/337 338/338
f 339/339 340/340 341/341
f 342/342 343/343 344/344
f 345/345 346/346 347/347
f 348/348 349/349 350/350
f 351/351 352/352 353/353
f 354/354 355/355 356/356
f 357/357 358/358 359/359
f 360/360 361/361 362/362
f 363/363 364/364 365/365
f 364/364 366/366 365/365
f 366/366 367/367 365/365
f 365/365 368/368 369/369
f 369/369 370/370 365/365
f 370/370 261/261 365/365
f 261/261 371/371 372/372
f 372/372 373/373 374/374
f 374/374 375/375 376/376
f 376/376 377/377 262/262
f 262/262 378/378 379/379
f 379/379 380/380 381/381
f 381/381 382/382 383/383
f 383/383 384/384 263/263
f 263/263 385/385 386/386
f 386/386 387/387 388/388
f 388/388 389/389 390/390
f 390/390 391/391 363/363
f 261/261 372/372 262/262
f 372/372 374/374 262/262
f 374/374 376/376 262/262
f 262/262 379/379 381/381
f 381/381 383/383 262/262
f 383/383 263/263 262/262
f 263/263 386/386 363/363
f 386/386 388/388 363/363
f 388/388 390/390 363/363
f 363/363 365/365 261/261
f 363/363 261/261 263/263
f 264/264 392/392 393/393
f 392/392 394/394 393/393
f 394/394 395/395 393/393
f 393/393 396/396 397/397
f 397/397 398/398 393/393
f 398/398 265/265 393/393
f 265/265 399/399 400/400
f 399/399 401/401 400/400
f 401/401 402/402 400/400
f 400/400 403/403 404/404
f 404/404 405/405 266/266
f 266/266 406/406 407/407
f 407/407 408/408 409/409
f 409/409 410/410 411/411
f 411/411 412/412 409/409
f 412/412 413/413 409/409
f 413/413 414/414 415/415
f 415/415 416/416 413/413
f 416/416 417/417 413/413
f 417/417 418/418 419/419
f 419/419 420/420 417/417
f 420/420 264/264 417/417
f 400/400 404/404 265/265
f 404/404 266/266 265/265
f 266/266 407/407 413/413
f 407/407 409/409 413/413
f 264/264 393/393 265/265
f 413/413 417/417 266/266
f 417/417 264/264 266/266
f 267/267 421/421 268/268
f 270/270 422/422 271/271
f 273/273 423/423 274/274
f 276/276 424/424 277/277
f 279/279 425/425 280/280
f 282/282 426/426 283/283
f 285/285 427/427 286/286
f 288/288 428/428 289/289
f 291/291 429/429 292/292
f 294/294 430/430 295/295
f 297/297 431/431 298/298
f 300/300 432/432 301/301
f 303/303 433/433 304/304
f 306/306 434/434 307/307
f 309/309 435/435 310/310
f 312/312 436/436 313/313
f 315/315 437/437 316/316
f 318/318 438/438 319/319
f 321/321 439/439 322/322
f 324/324 440/440 325/325
f 327/327 441/441 328/328
f 330/330 442/442 331/331
f 333/333 443/443 334/334
f 336/336 444/444 337/337
f 339/339 445/445 340/340
f 342/342 446/446 343/343
f 345/345 447/447 346/346
f 348/348 448/448 349/349
f 351/351 449/449 352/352
f 354/354 450/450 355/355
f 357/357 451/451 358/358
f 360/360 452/452 361/361

