# https://github.com/mikedh/trimesh
mtllib material.mtl
usemtl material_0
v -0.06303164 0.07133199 -0.08093487
v -0.07153165 0.06283199 -0.08093487
v -0.06303164 0.05433199 -0.08093487
v -0.05517867 0.06608480 -0.08093487
v -0.05977883 0.05497901 -0.08093487
v -0.07088462 0.05957918 -0.08093487
v -0.06303164 0.07133199 -0.07982286
v -0.07153165 0.06283199 -0.07982286
v -0.06303164 0.05433199 -0.07982286
v -0.05517867 0.06608480 -0.08093487
v -0.05469497 0.06449026 -0.07982286
v -0.05469497 0.06449026 -0.08093487
v -0.06775399 0.05576450 -0.08093487
v -0.06904205 0.05682158 -0.07982286
v -0.06904205 0.05682158 -0.08093487
v -0.05596415 0.06755434 -0.08093487
v -0.05517867 0.06608480 -0.07982286
v -0.05517867 0.06608480 -0.08093487
v -0.06628445 0.05497901 -0.08093487
v -0.06775399 0.05576450 -0.07982286
v -0.06775399 0.05576450 -0.08093487
v -0.06468991 0.07116867 -0.08093487
v -0.06303164 0.07133199 -0.07982286
v -0.06303164 0.07133199 -0.08093487
v -0.05702123 0.06884240 -0.08093487
v -0.05596415 0.06755434 -0.07982286
v -0.05596415 0.06755434 -0.08093487
v -0.06468991 0.05449531 -0.08093487
v -0.06628445 0.05497901 -0.07982286
v -0.06628445 0.05497901 -0.08093487
v -0.06628445 0.07068497 -0.08093487
v -0.06468991 0.07116867 -0.07982286
v -0.06468991 0.07116867 -0.08093487
v -0.05830930 0.06989948 -0.08093487
v -0.05702123 0.06884240 -0.07982286
v -0.05702123 0.06884240 -0.08093487
v -0.06303164 0.05433199 -0.08093487
v -0.06468991 0.05449531 -0.07982286
v -0.06468991 0.05449531 -0.08093487
v -0.06775399 0.06989948 -0.08093487
v -0.06628445 0.07068497 -0.07982286
v -0.06628445 0.07068497 -0.08093487
v -0.05977883 0.07068497 -0.08093487
v -0.05830930 0.06989948 -0.07982286
v -0.05830930 0.06989948 -0.08093487
v -0.06137338 0.05449531 -0.08093487
v -0.06303164 0.05433199 -0.07982286
v -0.06303164 0.05433199 -0.08093487
v -0.06904205 0.06884240 -0.08093487
v -0.06775399 0.06989948 -0.07982286
v -0.06775399 0.06989948 -0.08093487
v -0.06137338 0.07116867 -0.08093487
v -0.05977883 0.07068497 -0.07982286
v -0.05977883 0.07068497 -0.08093487
v -0.05977883 0.05497901 -0.08093487
v -0.06137338 0.05449531 -0.07982286
v -0.06137338 0.05449531 -0.08093487
v -0.07009914 0.06755434 -0.08093487
v -0.06904205 0.06884240 -0.07982286
v -0.06904205 0.06884240 -0.08093487
v -0.06303164 0.07133199 -0.08093487
v -0.06137338 0.07116867 -0.07982286
v -0.06137338 0.07116867 -0.08093487
v -0.05830930 0.05576450 -0.08093487
v -0.05977883 0.05497901 -0.07982286
v -0.05977883 0.05497901 -0.08093487
v -0.07088462 0.06608480 -0.08093487
v -0.07009914 0.06755434 -0.07982286
v -0.07009914 0.06755434 -0.08093487
v -0.05702124 0.05682158 -0.08093487
v -0.05830930 0.05576450 -0.07982286
v -0.05830930 0.05576450 -0.08093487
v -0.07136832 0.06449026 -0.08093487
v -0.07088462 0.06608480 -0.07982286
v -0.07088462 0.06608480 -0.08093487
v -0.05596415 0.05810964 -0.08093487
v -0.05702124 0.05682158 -0.07982286
v -0.05702124 0.05682158 -0.08093487
v -0.07153165 0.06283199 -0.08093487
v -0.07136832 0.06449026 -0.07982286
v -0.07136832 0.06449026 -0.08093487
v -0.05517867 0.05957918 -0.08093487
v -0.05596415 0.05810964 -0.07982286
v -0.05596415 0.05810964 -0.08093487
v -0.07136832 0.06117372 -0.08093487
v -0.07153165 0.06283199 -0.07982286
v -0.07153165 0.06283199 -0.08093487
v -0.05469497 0.06117372 -0.08093487
v -0.05517867 0.05957918 -0.07982286
v -0.05517867 0.05957918 -0.08093487
v -0.07088462 0.05957918 -0.08093487
v -0.07136832 0.06117372 -0.07982286
v -0.07136832 0.06117372 -0.08093487
v -0.05453164 0.06283199 -0.08093487
v -0.05469497 0.06117372 -0.07982286
v -0.05469497 0.06117372 -0.08093487
v -0.07009914 0.05810964 -0.08093487
v -0.07088462 0.05957918 -0.07982286
v -0.07088462 0.05957918 -0.08093487
v -0.05469497 0.06449026 -0.08093487
v -0.05453164 0.06283199 -0.07982286
v -0.05453164 0.06283199 -0.08093487
v -0.06904205 0.05682158 -0.08093487
v -0.07009914 0.05810964 -0.07982286
v -0.07009914 0.05810964 -0.08093487
v -0.06468991 0.07116867 -0.08093487
v -0.06904205 0.06884240 -0.08093487
v -0.06628445 0.07068497 -0.08093487
v -0.06775399 0.06989948 -0.08093487
v -0.07009914 0.06755434 -0.08093487
v -0.07088462 0.06608480 -0.08093487
v -0.07136832 0.06449026 -0.08093487
v -0.07136832 0.06117372 -0.08093487
v -0.06904205 0.05682158 -0.08093487
v -0.07088462 0.05957918 -0.08093487
v -0.07009914 0.05810964 -0.08093487
v -0.06775399 0.05576450 -0.08093487
v -0.06628445 0.05497901 -0.08093487
v -0.06468991 0.05449531 -0.08093487
v -0.06137338 0.05449531 -0.08093487
v -0.05977883 0.05497901 -0.08093487
v -0.05830930 0.05576450 -0.08093487
v -0.05702124 0.05682158 -0.08093487
v -0.05596415 0.05810964 -0.08093487
v -0.05517867 0.05957918 -0.08093487
v -0.05469497 0.06117372 -0.08093487
v -0.05453164 0.06283199 -0.08093487
v -0.05469497 0.06449026 -0.08093487
v -0.05517867 0.06608480 -0.08093487
v -0.05596415 0.06755434 -0.08093487
v -0.05702123 0.06884240 -0.08093487
v -0.05830930 0.06989948 -0.08093487
v -0.05977883 0.07068497 -0.08093487
v -0.06137338 0.07116867 -0.08093487
v -0.06628445 0.07068497 -0.08093487
v -0.06468991 0.07116867 -0.08093487
v -0.05977883 0.07068497 -0.08093487
v -0.06303164 0.07133199 -0.08093487
v -0.06137338 0.07116867 -0.08093487
v -0.05830930 0.06989948 -0.08093487
v -0.05702123 0.06884240 -0.08093487
v -0.05596415 0.06755434 -0.08093487
v -0.05469497 0.06449026 -0.08093487
v -0.05453164 0.06283199 -0.08093487
v -0.05469497 0.06117372 -0.08093487
v -0.05517867 0.05957918 -0.08093487
v -0.05596415 0.05810964 -0.08093487
v -0.05702124 0.05682158 -0.08093487
v -0.05830930 0.05576450 -0.08093487
v -0.06137338 0.05449531 -0.08093487
v -0.06303164 0.05433199 -0.08093487
v -0.06468991 0.05449531 -0.08093487
v -0.06628445 0.05497901 -0.08093487
v -0.06775399 0.05576450 -0.08093487
v -0.06904205 0.05682158 -0.08093487
v -0.07009914 0.05810964 -0.08093487
v -0.07136832 0.06117372 -0.08093487
v -0.07153165 0.06283199 -0.08093487
v -0.07136832 0.06449026 -0.08093487
v -0.07088462 0.06608480 -0.08093487
v -0.07009914 0.06755434 -0.08093487
v -0.06904205 0.06884240 -0.08093487
v -0.06775399 0.06989948 -0.08093487
v -0.06468991 0.07116867 -0.07982286
v -0.06904205 0.06884240 -0.07982286
v -0.06628445 0.07068497 -0.07982286
v -0.06775399 0.06989948 -0.07982286
v -0.07009914 0.06755434 -0.07982286
v -0.07088462 0.06608480 -0.07982286
v -0.07136832 0.06449026 -0.07982286
v -0.07136832 0.06117372 -0.07982286
v -0.06904205 0.05682158 -0.07982286
v -0.07088462 0.05957918 -0.07982286
v -0.07009914 0.05810964 -0.07982286
v -0.06775399 0.05576450 -0.07982286
v -0.06628445 0.05497901 -0.07982286
v -0.06468991 0.05449531 -0.07982286
v -0.06137338 0.05449531 -0.07982286
v -0.05977883 0.05497901 -0.07982286
v -0.05830930 0.05576450 -0.07982286
v -0.05702124 0.05682158 -0.07982286
v -0.05596415 0.05810964 -0.07982286
v -0.05517867 0.05957918 -0.07982286
v -0.05469497 0.06117372 -0.07982286
v -0.05453164 0.06283199 -0.07982286
v -0.05469497 0.06449026 -0.07982286
v -0.05517867 0.06608480 -0.07982286
v -0.05596415 0.06755434 -0.07982286
v -0.05702123 0.06884240 -0.07982286
v -0.05830930 0.06989948 -0.07982286
v -0.05977883 0.07068497 -0.07982286
v -0.06137338 0.07116867 -0.07982286
v -0.05517867 0.06608480 -0.07982286
v -0.06775399 0.05576450 -0.07982286
v -0.05596415 0.06755434 -0.07982286
v -0.06628445 0.05497901 -0.07982286
v -0.06468991 0.07116867 -0.07982286
v -0.05702123 0.06884240 -0.07982286
v -0.06468991 0.05449531 -0.07982286
v -0.06628445 0.07068497 -0.07982286
v -0.05830930 0.06989948 -0.07982286
v -0.06303164 0.05433199 -0.07982286
v -0.06775399 0.06989948 -0.07982286
v -0.05977883 0.07068497 -0.07982286
v -0.06137338 0.05449531 -0.07982286
v -0.06904205 0.06884240 -0.07982286
v -0.06137338 0.07116867 -0.07982286
v -0.05977883 0.05497901 -0.07982286
v -0.07009914 0.06755434 -0.07982286
v -0.06303164 0.07133199 -0.07982286
v -0.05830930 0.05576450 -0.07982286
v -0.07088462 0.06608480 -0.07982286
v -0.05702124 0.05682158 -0.07982286
v -0.07136832 0.06449026 -0.07982286
v -0.05596415 0.05810964 -0.07982286
v -0.07153165 0.06283199 -0.07982286
v -0.05517867 0.05957918 -0.07982286
v -0.07136832 0.06117372 -0.07982286
v -0.05469497 0.06117372 -0.07982286
v -0.07088462 0.05957918 -0.07982286
v -0.05453164 0.06283199 -0.07982286
v -0.07009914 0.05810964 -0.07982286
v -0.05469497 0.06449026 -0.07982286
v -0.06904205 0.05682158 -0.07982286
v -0.07818367 -0.02210039 -0.11173265
v -0.07818367 -0.06243085 -0.12586158
v -0.07818367 -0.06243085 -0.11173265
v -0.07743277 -0.06243085 -0.12586158
v -0.07743277 -0.02210039 -0.11173265
v -0.07743277 -0.06243085 -0.11173265
v -0.07818367 -0.02210039 -0.11173265
v -0.07743277 -0.02210039 -0.12586158
v -0.07818367 -0.02210039 -0.12586158
v -0.07818367 -0.06243085 -0.12586158
v -0.07743277 -0.06243085 -0.11173265
v -0.07818367 -0.06243085 -0.11173265
v -0.07818367 -0.02210039 -0.12586158
v -0.07743277 -0.06243085 -0.12586158
v -0.07818367 -0.06243085 -0.12586158
v -0.07818367 -0.06243085 -0.11173265
v -0.07743277 -0.02210039 -0.11173265
v -0.07818367 -0.02210039 -0.11173265
v -0.07818367 -0.02210039 -0.12586158
v -0.07743277 -0.02210039 -0.12586158
v -0.07743277 -0.02210039 -0.11173265
v -0.07743277 -0.06243085 -0.12586158
v -0.07743277 -0.02210039 -0.12586158
v -0.07743277 -0.06243085 -0.11173265
vt 0.00000000 0.00000000
vt 0.00000000 0.00000000
vt 0.00000000 0.00000000
vt 0.00000000 0.00000000
vt 0.00000000 0.00000000
vt 0.00000000 0.00000000
vt 0.00000000 0.00000000
vt 0.00000000 0.00000000
vt 0.00000000 0.00000000
vt 0.00000000 0.00000000
vt 0.00000000 0.00000000
vt 0.00000000 0.00000000
vt 0.00000000 0.00000000
vt 0.00000000 0.00000000
vt 0.00000000 0.00000000
vt 0.00000000 0.00000000
vt 0.00000000 0.00000000
vt 0.00000000 0.00000000
vt 0.00000000 0.00000000
vt 0.00000000 0.00000000
vt 0.00000000 0.00000000
vt 0.00000000 0.00000000
vt 0.00000000 0.00000000
vt 0.00000000 0.00000000
vt 0.00000000 0.00000000
vt 0.00000000 0.00000000
vt 0.00000000 0.00000000
vt 0.00000000 0.00000000
vt 0.00000000 0.00000000
vt 0.00000000 0.00000000
vt 0.00000000 0.00000000
vt 0.00000000 0.00000000
vt 0.00000000 0.00000000
vt 0.00000000 0.00000000
vt 0.00000000 0.00000000
vt 0.00000000 0.00000000
vt 0.00000000 0.00000000
vt 0.00000000 0.00000000
vt 0.00000000 0.00000000
vt 0.00000000 0.00000000
vt 0.00000000 0.00000000
vt 0.00000000 0.00000000
vt 0.00000000 0.00000000
vt 0.00000000 0.00000000
vt 0.00000000 0.00000000
vt 0.00000000 0.00000000
vt 0.00000000 0.00000000
vt 0.00000000 0.00000000
vt 0.00000000 0.00000000
vt 0.00000000 0.00000000
vt 0.00000000 0.00000000
vt 0.00000000 0.00000000
vt 0.00000000 0.00000000
vt 0.00000000 0.00000000
vt 0.00000000 0.00000000
vt 0.00000000 0.00000000
vt 0.00000000 0.00000000
vt 0.00000000 0.00000000
vt 0.00000000 0.00000000
vt 0.00000000 0.00000000
vt 0.00000000 0.00000000
vt 0.00000000 0.00000000
vt 0.00000000 0.00000000
vt 0.00000000 0.00000000
vt 0.00000000 0.00000000
vt 0.00000000 0.00000000
vt 0.00000000 0.00000000
vt 0.00000000 0.00000000
vt 0.00000000 0.00000000
vt 0.00000000 0.00000000
vt 0.00000000 0.00000000
vt 0.00000000 0.00000000
vt 0.00000000 0.00000000
vt 0.00000000 0.00000000
vt 0.00000000 0.00000000
vt 0.00000000 0.00000000
vt 0.00000000 0.00000000
vt 0.00000000 0.00000000
vt 0.00000000 0.00000000
vt 0.00000000 0.00000000
vt 0.00000000 0.00000000
vt 0.00000000 0.00000000
vt 0.00000000 0.00000000
vt 0.00000000 0.00000000
vt 0.00000000 0.00000000
vt 0.00000000 0.00000000
vt 0.00000000 0.00000000
vt 0.00000000 0.00000000
vt 0.00000000 0.00000000
vt 0.00000000 0.00000000
vt 0.00000000 0.00000000
vt 0.00000000 0.00000000
vt 0.00000000 0.00000000
vt 0.00000000 0.00000000
vt 0.00000000 0.00000000
vt 0.00000000 0.00000000
vt 0.00000000 0.00000000
vt 0.00000000 0.00000000
vt 0.00000000 0.00000000
vt 0.00000000 0.00000000
vt 0.00000000 0.00000000
vt 0.00000000 0.00000000
vt 0.00000000 0.00000000
vt 0.00000000 0.00000000
vt 0.00000000 0.00000000
vt 0.00000000 0.00000000
vt 0.00000000 0.00000000
vt 0.00000000 0.00000000
vt 0.00000000 0.00000000
vt 0.00000000 0.00000000
vt 0.00000000 0.00000000
vt 0.00000000 0.00000000
vt 0.00000000 0.00000000
vt 0.00000000 0.00000000
vt 0.00000000 0.00000000
vt 0.00000000 0.00000000
vt 0.00000000 0.00000000
vt 0.00000000 0.00000000
vt 0.00000000 0.00000000
vt 0.00000000 0.00000000
vt 0.00000000 0.00000000
vt 0.00000000 0.00000000
vt 0.00000000 0.00000000
vt 0.00000000 0.00000000
vt 0.00000000 0.00000000
vt 0.00000000 0.00000000
vt 0.00000000 0.00000000
vt 0.00000000 0.00000000
vt 0.00000000 0.00000000
vt 0.00000000 0.00000000
vt 0.00000000 0.00000000
vt 0.00000000 0.00000000
vt 0.00000000 0.00000000
vt 0.00000000 0.00000000
vt 0.00000000 0.00000000
vt 0.00000000 0.00000000
vt 0.00000000 0.00000000
vt 0.00000000 0.00000000
vt 0.00000000 0.00000000
vt 0.00000000 0.00000000
vt 0.00000000 0.00000000
vt 0.00000000 0.00000000
vt 0.00000000 0.00000000
vt 0.00000000 0.00000000
vt 0.00000000 0.00000000
vt 0.00000000 0.00000000
vt 0.00000000 0.00000000
vt 0.00000000 0.00000000
vt 0.00000000 0.00000000
vt 0.00000000 0.00000000
vt 0.00000000 0.00000000
vt 0.00000000 0.00000000
vt 0.00000000 0.00000000
vt 0.00000000 0.00000000
vt 0.00000000 0.00000000
vt 0.00000000 0.00000000
vt 0.00000000 0.00000000
vt 0.00000000 0.00000000
vt 0.00000000 0.00000000
vt 0.00000000 0.00000000
vt 0.00000000 0.00000000
vt 0.00000000 0.00000000
vt 0.00000000 0.00000000
vt 0.00000000 0.00000000
vt 0.00000000 0.00000000
vt 0.00000000 0.00000000
vt 0.00000000 0.00000000
vt 0.00000000 0.00000000
vt 0.00000000 0.00000000
vt 0.00000000 0.00000000
vt 0.00000000 0.00000000
vt 0.00000000 0.00000000
vt 0.00000000 0.00000000
vt 0.00000000 0.00000000
vt 0.00000000 0.00000000
vt 0.00000000 0.00000000
vt 0.00000000 0.00000000
vt 0.00000000 0.00000000
vt 0.00000000 0.00000000
vt 0.00000000 0.00000000
vt 0.00000000 0.00000000
vt 0.00000000 0.00000000
vt 0.00000000 0.00000000
vt 0.00000000 0.00000000
vt 0.00000000 0.00000000
vt 0.00000000 0.00000000
vt 0.00000000 0.00000000
vt 0.00000000 0.00000000
vt 0.00000000 0.00000000
vt 0.00000000 0.00000000
vt 0.00000000 0.00000000
vt 0.00000000 0.00000000
vt 0.00000000 0.00000000
vt 0.00000000 0.00000000
vt 0.00000000 0.00000000
vt 0.00000000 0.00000000
vt 0.00000000 0.00000000
vt 0.00000000 0.00000000
vt 0.00000000 0.00000000
vt 0.00000000 0.00000000
vt 0.00000000 0.00000000
vt 0.00000000 0.00000000
vt 0.00000000 0.00000000
vt 0.00000000 0.00000000
vt 0.00000000 0.00000000
vt 0.00000000 0.00000000
vt 0.00000000 0.00000000
vt 0.00000000 0.00000000
vt 0.00000000 0.00000000
vt 0.00000000 0.00000000
vt 0.00000000 0.00000000
vt 0.00000000 0.00000000
vt 0.00000000 0.00000000
vt 0.00000000 0.00000000
vt 0.00000000 0.00000000
vt 0.00000000 0.00000000
vt 0.00000000 0.00000000
vt 0.00000000 0.00000000
vt 0.00000000 0.00000000
vt 0.00000000 0.00000000
vt 0.00000000 0.00000000
vt 0.00000000 0.00000000
vt 0.00000000 0.00000000
vt 0.00000000 0.00000000
vt 0.00000000 1.00000000
vt 1.00000000 0.00000000
vt 0.00000000 0.00000000
vt 1.00000000 0.00000000
vt 0.00000000 1.00000000
vt 0.00000000 0.00000000
vt 0.00000000 1.00000000
vt 1.00000000 1.00000000
vt 1.00000000 1.00000000
vt 1.00000000 0.00000000
vt 0.00000000 0.00000000
vt 0.00000000 0.00000000
vt 1.00000000 1.00000000
vt 1.00000000 0.00000000
vt 1.00000000 0.00000000
vt 0.00000000 0.00000000
vt 0.00000000 1.00000000
vt 0.00000000 1.00000000
vt 1.00000000 1.00000000
vt 1.00000000 1.00000000
vt 0.00000000 1.00000000
vt 1.00000000 0.00000000
vt 1.00000000 1.00000000
vt 0.00000000 0.00000000
f 1/1 2/2 3/3
f 4/4 5/5 6/6
f 7/7 8/8 9/9
f 10/10 11/11 12/12
f 13/13 14/14 15/15
f 16/16 17/17 18/18
f 19/19 20/20 21/21
f 22/22 23/23 24/24
f 25/25 26/26 27/27
f 28/28 29/29 30/30
f 31/31 32/32 33/33
f 34/34 35/35 36/36
f 37/37 38/38 39/39
f 40/40 41/41 42/42
f 43/43 44/44 45/45
f 46/46 47/47 48/48
f 49/49 50/50 51/51
f 52/52 53/53 54/54
f 55/55 56/56 57/57
f 58/58 59/59 60/60
f 61/61 62/62 63/63
f 64/64 65/65 66/66
f 67/67 68/68 69/69
f 70/70 71/71 72/72
f 73/73 74/74 75/75
f 76/76 77/77 78/78
f 79/79 80/80 81/81
f 82/82 83/83 84/84
f 85/85 86/86 87/87
f 88/88 89/89 90/90
f 91/91 92/92 93/93
f 94/94 95/95 96/96
f 97/97 98/98 99/99
f 100/100 101/101 102/102
f 103/103 104/104 105/105
f 1/1 106/106 107/107
f 106/106 108/108 107/107
f 108/108 109/109 107/107
f 107/107 110/110 111/111
f 111/111 112/112 107/107
f 112/112 2/2 107/107
f 2/2 113/113 114/114
f 113/113 115/115 114/114
f 115/115 116/116 114/114
f 114/114 117/117 118/118
f 118/118 119/119 3/3
f 3/3 120/120 121/121
f 121/121 122/122 123/123
f 123/123 124/124 125/125
f 125/125 126/126 123/123
f 126/126 127/127 123/123
f 127/127 128/128 129/129
f 129/129 130/130 127/127
f 130/130 131/131 127/127
f 131/131 132/132 133/133
f 133/133 134/134 131/131
f 134/134 1/1 131/131
f 114/114 118/118 2/2
f 118/118 3/3 2/2
f 3/3 121/121 127/127
f 121/121 123/123 127/127
f 1/1 107/107 2/2
f 127/127 131/131 3/3
f 131/131 1/1 3/3
f 135/135 136/136 137/137
f 136/136 138/138 137/137
f 138/138 139/139 137/137
f 137/137 140/140 141/141
f 141/141 142/142 137/137
f 142/142 4/4 137/137
f 4/4 143/143 144/144
f 144/144 145/145 146/146
f 146/146 147/147 148/148
f 148/148 149/149 5/5
f 5/5 150/150 151/151
f 151/151 152/152 153/153
f 153/153 154/154 155/155
f 155/155 156/156 6/6
f 6/6 157/157 158/158
f 158/158 159/159 160/160
f 160/160 161/161 162/162
f 162/162 163/163 135/135
f 4/4 144/144 5/5
f 144/144 146/146 5/5
f 146/146 148/148 5/5
f 5/5 151/151 153/153
f 153/153 155/155 5/5
f 155/155 6/6 5/5
f 6/6 158/158 135/135
f 158/158 160/160 135/135
f 160/160 162/162 135/135
f 135/135 137/137 4/4
f 135/135 4/4 6/6
f 7/7 164/164 165/165
f 164/164 166/166 165/165
f 166/166 167/167 165/165
f 165/165 168/168 169/169
f 169/169 170/170 165/165
f 170/170 8/8 165/165
f 8/8 171/171 172/172
f 171/171 173/173 172/172
f 173/173 174/174 172/172
f 172/172 175/175 176/176
f 176/176 177/177 9/9
f 9/9 178/178 179/179
f 179/179 180/180 181/181
f 181/181 182/182 183/183
f 183/183 184/184 181/181
f 184/184 185/185 181/181
f 185/185 186/186 187/187
f 187/187 188/188 185/185
f 188/188 189/189 185/185
f 189/189 190/190 191/191
f 191/191 192/192 189/189
f 192/192 7/7 189/189
f 172/172 176/176 8/8
f 176/176 9/9 8/8
f 9/9 179/179 185/185
f 179/179 181/181 185/185
f 7/7 165/165 8/8
f 185/185 189/189 9/9
f 189/189 7/7 9/9
f 10/10 193/193 11/11
f 13/13 194/194 14/14
f 16/16 195/195 17/17
f 19/19 196/196 20/20
f 22/22 197/197 23/23
f 25/25 198/198 26/26
f 28/28 199/199 29/29
f 31/31 200/200 32/32
f 34/34 201/201 35/35
f 37/37 202/202 38/38
f 40/40 203/203 41/41
f 43/43 204/204 44/44
f 46/46 205/205 47/47
f 49/49 206/206 50/50
f 52/52 207/207 53/53
f 55/55 208/208 56/56
f 58/58 209/209 59/59
f 61/61 210/210 62/62
f 64/64 211/211 65/65
f 67/67 212/212 68/68
f 70/70 213/213 71/71
f 73/73 214/214 74/74
f 76/76 215/215 77/77
f 79/79 216/216 80/80
f 82/82 217/217 83/83
f 85/85 218/218 86/86
f 88/88 219/219 89/89
f 91/91 220/220 92/92
f 94/94 221/221 95/95
f 97/97 222/222 98/98
f 100/100 223/223 101/101
f 103/103 224/224 104/104
f 225/225 226/226 227/227
f 228/228 229/229 230/230
f 231/231 232/232 233/233
f 234/234 235/235 236/236
f 237/237 238/238 239/239
f 240/240 241/241 242/242
f 225/225 243/243 226/226
f 228/228 244/244 229/229
f 231/231 245/245 232/232
f 234/234 246/246 235/235
f 237/237 247/247 238/238
f 240/240 248/248 241/241

